<svg width="39" height="52" viewBox="0 0 39 52" fill="none" xmlns="http://www.w3.org/2000/svg">
<path d="M19.0255 19.9774C18.3918 19.3437 17.3615 19.3404 16.7245 19.9742L11.375 25.3269L9.2755 23.2242C8.64175 22.5904 7.6115 22.5904 6.97775 23.2242C6.344 23.8579 6.344 24.8882 6.97775 25.5219L10.2278 28.7719C10.543 29.0904 10.959 29.2497 11.375 29.2497C11.791 29.2497 12.207 29.0904 12.5255 28.7752L19.0255 22.2752C19.6593 21.6414 19.6593 20.6112 19.0255 19.9774Z" fill="white"/>
<path d="M19.0255 32.9774C18.3918 32.3437 17.3615 32.3404 16.7245 32.9742L11.375 38.3269L9.2755 36.2274C8.64175 35.5937 7.6115 35.5937 6.97775 36.2274C6.344 36.8612 6.344 37.8914 6.97775 38.5252L10.2278 41.7752C10.543 42.0904 10.959 42.2497 11.375 42.2497C11.791 42.2497 12.207 42.0904 12.5255 41.7752L19.0255 35.2752C19.6593 34.6414 19.6593 33.6112 19.0255 32.9774Z" fill="white"/>
<path d="M30.875 22.75H24.375C23.478 22.75 22.75 23.478 22.75 24.375C22.75 25.272 23.478 26 24.375 26H30.875C31.772 26 32.5 25.272 32.5 24.375C32.5 23.478 31.772 22.75 30.875 22.75Z" fill="white"/>
<path d="M30.875 35.75H24.375C23.478 35.75 22.75 36.478 22.75 37.375C22.75 38.272 23.478 39 24.375 39H30.875C31.772 39 32.5 38.272 32.5 37.375C32.5 36.478 31.772 35.75 30.875 35.75Z" fill="white"/>
<path d="M35.75 6.5H29.25V4.875C29.25 3.978 28.522 3.25 27.625 3.25H24.0987C23.426 1.3585 21.619 0 19.5 0C17.381 0 15.574 1.3585 14.9012 3.25H11.375C10.478 3.25 9.75 3.978 9.75 4.875V6.5H3.25C1.45925 6.5 0 7.95925 0 9.75V48.75C0 50.5407 1.45925 52 3.25 52H35.75C37.5407 52 39 50.5407 39 48.75V9.75C39 7.95925 37.5407 6.5 35.75 6.5ZM13 6.5H16.25C17.147 6.5 17.875 5.772 17.875 4.875C17.875 3.978 18.603 3.25 19.5 3.25C20.397 3.25 21.125 3.978 21.125 4.875C21.125 5.772 21.853 6.5 22.75 6.5H26V9.75H13V6.5ZM35.75 48.75H3.25V9.75H9.75V11.375C9.75 12.272 10.478 13 11.375 13H27.625C28.522 13 29.25 12.272 29.25 11.375V9.75H35.75V48.75Z" fill="white"/>
</svg>
