<svg width="26" height="26" viewBox="0 0 26 26" fill="none" xmlns="http://www.w3.org/2000/svg">
<path d="M0.523925 0.546296C0.859495 0.210827 1.31457 0.0223711 1.78906 0.0223711C2.26356 0.0223711 2.71863 0.210827 3.0542 0.546296L12.5257 10.0178L21.9972 0.546296C22.1623 0.375386 22.3598 0.239062 22.5781 0.145279C22.7964 0.0514961 23.0312 0.00213225 23.2688 6.75635e-05C23.5064 -0.00199713 23.7421 0.0432789 23.962 0.133254C24.1819 0.223229 24.3817 0.3561 24.5497 0.524116C24.7177 0.692132 24.8506 0.891926 24.9406 1.11184C25.0305 1.33176 25.0758 1.56739 25.0738 1.80499C25.0717 2.04259 25.0223 2.27741 24.9285 2.49572C24.8348 2.71404 24.6984 2.9115 24.5275 3.07657L15.056 12.5481L24.5275 22.0196C24.8535 22.3571 25.0338 22.8091 25.0298 23.2783C25.0257 23.7475 24.8375 24.1963 24.5057 24.5281C24.1739 24.8599 23.7251 25.0481 23.2559 25.0521C22.7868 25.0562 22.3347 24.8759 21.9972 24.5499L12.5257 15.0784L3.0542 24.5499C2.71671 24.8759 2.26469 25.0562 1.7955 25.0521C1.32631 25.0481 0.8775 24.8599 0.545723 24.5281C0.213945 24.1963 0.0257517 23.7475 0.0216746 23.2783C0.0175975 22.8091 0.197963 22.3571 0.523925 22.0196L9.99545 12.5481L0.523925 3.07657C0.188456 2.741 0 2.28593 0 1.81143C0 1.33694 0.188456 0.881866 0.523925 0.546296Z" fill="white"/>
</svg>
