<svg width="68" height="52" viewBox="0 0 68 52" fill="none" xmlns="http://www.w3.org/2000/svg">
<path d="M49.704 23.7314H43.7712V17.7985C43.7712 16.7064 42.8857 15.8209 41.7936 15.8209C40.7014 15.8209 39.816 16.7064 39.816 17.7985V25.709C39.816 26.8012 40.7014 27.6866 41.7936 27.6866H49.704C50.7962 27.6866 51.6816 26.8012 51.6816 25.709C51.6816 24.6168 50.7962 23.7314 49.704 23.7314ZM41.7936 0C38.1168 0 34.5951 0.75123 31.3371 2.22798L9.34607 12.0371C8.64758 12.3486 8.19141 13.035 8.17453 13.7997C8.15779 14.5642 8.58324 15.2701 9.26736 15.6121L13.6109 17.7839L1.10483 23.9344C0.428483 24.267 0 24.9552 0 25.709C0 26.4627 0.428483 27.1509 1.10483 27.4836L13.6107 33.6341L9.26723 35.8059C8.58324 36.1479 8.15766 36.8538 8.1744 37.6183C8.19128 38.3829 8.64745 39.0692 9.34594 39.3809L31.3259 49.1848C34.5948 50.6666 38.1165 51.418 41.7936 51.418C55.9695 51.418 67.5026 39.8849 67.5026 25.709C67.5026 11.533 55.9695 0 41.7936 0ZM41.7936 47.4627C38.6837 47.4627 35.7115 46.8302 32.9484 45.5774L14.7778 37.4726L18.9466 35.3882C19.6187 35.0522 20.0423 34.3642 20.0398 33.6129C20.0373 32.8615 19.6092 32.1763 18.935 31.8447L6.45876 25.709L18.935 19.5731C19.6092 19.2415 20.0373 18.5565 20.0398 17.805C20.0423 17.0536 19.6187 16.3657 18.9466 16.0296L14.7778 13.9452L32.9593 5.83528C35.7116 4.5878 38.6838 3.95523 41.7936 3.95523C53.7886 3.95523 63.5473 13.714 63.5473 25.709C63.5473 37.704 53.7886 47.4627 41.7936 47.4627ZM41.7936 7.91046C31.9795 7.91046 23.9951 15.8949 23.9951 25.709C23.9951 35.5231 31.9795 43.5075 41.7936 43.5075C51.6077 43.5075 59.5921 35.5231 59.5921 25.709C59.5921 15.8949 51.6077 7.91046 41.7936 7.91046ZM41.7936 39.5523C34.1604 39.5523 27.9503 33.3422 27.9503 25.709C27.9503 18.0758 34.1604 11.8657 41.7936 11.8657C49.4268 11.8657 55.6369 18.0758 55.6369 25.709C55.6369 33.3422 49.4268 39.5523 41.7936 39.5523Z" fill="white"/>
</svg>
