<svg width="50" height="35" viewBox="0 0 50 35" fill="none" xmlns="http://www.w3.org/2000/svg">
<path d="M45.5469 0H4.14062C3.04284 0.00123293 1.99037 0.437872 1.21412 1.21412C0.437872 1.99037 0.00123293 3.04284 0 4.14062V30.6406C0.00123293 31.7384 0.437872 32.7909 1.21412 33.5671C1.99037 34.3434 3.04284 34.78 4.14062 34.7812H45.5469C46.6447 34.78 47.6971 34.3434 48.4734 33.5671C49.2496 32.7909 49.6863 31.7384 49.6875 30.6406V4.14062C49.6863 3.04284 49.2496 1.99037 48.4734 1.21412C47.6971 0.437872 46.6447 0.00123293 45.5469 0ZM45.5469 33.125H4.14062C3.48196 33.1242 2.8505 32.8622 2.38475 32.3965C1.91901 31.9308 1.65702 31.2993 1.65625 30.6406V5.58601L12.8312 12.1368C13.0204 12.2433 13.2438 12.2712 13.4534 12.2146C13.663 12.158 13.842 12.0213 13.9518 11.834C14.0616 11.6468 14.0935 11.4238 14.0406 11.2133C13.9876 11.0027 13.8541 10.8214 13.6688 10.7083L1.69766 3.69054C1.80353 3.11969 2.10571 2.60385 2.55186 2.23233C2.99801 1.86081 3.56004 1.65702 4.14062 1.65625H45.5469C46.1275 1.65702 46.6895 1.86081 47.1356 2.23233C47.5818 2.60385 47.884 3.11969 47.9898 3.69054L36.0187 10.708C35.9228 10.7619 35.8387 10.8344 35.7712 10.9212C35.7037 11.008 35.6541 11.1074 35.6254 11.2136C35.5968 11.3198 35.5895 11.4306 35.6041 11.5396C35.6187 11.6486 35.6549 11.7536 35.7105 11.8485C35.7662 11.9434 35.8401 12.0262 35.9281 12.0922C36.0161 12.1582 36.1164 12.2059 36.223 12.2328C36.3297 12.2596 36.4406 12.2649 36.5494 12.2483C36.6581 12.2318 36.7624 12.1938 36.8563 12.1365L48.0312 5.58601V30.6406C48.0305 31.2993 47.7685 31.9308 47.3027 32.3965C46.837 32.8622 46.2055 33.1242 45.5469 33.125ZM24.8438 7.45312C23.2822 7.45335 21.7426 7.82158 20.3499 8.52798C18.9572 9.23437 17.7506 10.259 16.8279 11.5189C15.9052 12.7787 15.2924 14.2383 15.0392 15.7792C14.786 17.3202 14.8994 18.8991 15.3705 20.3879C15.8415 21.8768 16.6567 23.2337 17.7501 24.3487C18.8435 25.4636 20.1843 26.3051 21.6637 26.8051C23.1431 27.305 24.7195 27.4493 26.2651 27.2262C27.8106 27.003 29.2819 26.4188 30.5595 25.5208C30.739 25.3943 30.861 25.2017 30.8985 24.9852C30.9361 24.7688 30.8861 24.5463 30.7596 24.3668C30.6331 24.1872 30.4404 24.0652 30.224 24.0277C30.0075 23.9902 29.785 24.0401 29.6055 24.1667C28.0881 25.2332 26.2566 25.7595 24.4046 25.6612C22.5525 25.563 20.787 24.846 19.3909 23.625C17.9948 22.404 17.049 20.7497 16.705 18.9272C16.361 17.1047 16.6386 15.2195 17.4935 13.5736C18.3484 11.9276 19.7311 10.6163 21.4199 9.84972C23.1087 9.0831 25.006 8.90556 26.8078 9.34553C28.6095 9.7855 30.2114 10.8175 31.3569 12.2762C32.5023 13.735 33.1249 15.5359 33.125 17.3906V19.0469C33.125 19.4861 32.9505 19.9074 32.6399 20.218C32.3293 20.5286 31.908 20.7031 31.4688 20.7031C31.0295 20.7031 30.6082 20.5286 30.2976 20.218C29.987 19.9074 29.8125 19.4861 29.8125 19.0469V13.25C29.8125 13.0304 29.7253 12.8197 29.5699 12.6644C29.4146 12.5091 29.204 12.4219 28.9844 12.4219C28.7647 12.4219 28.5541 12.5091 28.3988 12.6644C28.2435 12.8197 28.1562 13.0304 28.1562 13.25V13.6911C27.4227 13.0333 26.5101 12.6085 25.5345 12.4706C24.5589 12.3327 23.5643 12.488 22.6772 12.9167C21.7901 13.3454 21.0504 14.0282 20.5523 14.8783C20.0541 15.7284 19.8199 16.7074 19.8795 17.6909C19.9391 18.6743 20.2897 19.6179 20.8868 20.4017C21.4839 21.1854 22.3006 21.7739 23.233 22.0924C24.1653 22.4109 25.1714 22.445 26.1232 22.1904C27.075 21.9358 27.9297 21.4039 28.5785 20.6624C28.936 21.3025 29.4957 21.8058 30.17 22.0935C30.8443 22.3812 31.5949 22.4371 32.3044 22.2523C33.0138 22.0675 33.6418 21.6526 34.0901 21.0725C34.5383 20.4924 34.7814 19.78 34.7812 19.0469V17.3906C34.7783 14.7559 33.7304 12.23 31.8674 10.367C30.0044 8.50402 27.4784 7.45608 24.8438 7.45312ZM24.8438 20.7031C24.1886 20.7031 23.5482 20.5089 23.0034 20.1449C22.4587 19.7809 22.0341 19.2635 21.7834 18.6583C21.5327 18.053 21.4671 17.3869 21.5949 16.7444C21.7227 16.1018 22.0382 15.5116 22.5015 15.0483C22.9647 14.5851 23.555 14.2696 24.1975 14.1418C24.8401 14.014 25.5061 14.0796 26.1114 14.3303C26.7167 14.581 27.234 15.0056 27.598 15.5503C27.962 16.095 28.1562 16.7355 28.1562 17.3906C28.1553 18.2689 27.806 19.1108 27.1849 19.7318C26.5639 20.3528 25.722 20.7021 24.8438 20.7031Z" fill="white"/>
</svg>
