<svg width="57" height="57" viewBox="0 0 57 57" fill="none" xmlns="http://www.w3.org/2000/svg">
<path d="M56.7934 54.5289L36.8496 18.0536C36.8496 15.9957 36.8496 3.4072 36.8496 1.66992C36.8496 0.74768 36.1019 0 35.1797 0C31.4456 0 29.4839 0.980801 27.7532 1.84615C26.1503 2.64772 24.7659 3.33984 21.8203 3.33984C20.898 3.33984 20.1504 4.08752 20.1504 5.00977V15.0293C20.1504 15.9515 20.898 16.6992 21.8203 16.6992C25.5543 16.6992 27.5161 15.7184 29.2468 14.8531C30.512 14.2205 31.6417 13.6563 33.5097 13.4464V18.0547L21.631 39.8323C21.0989 38.9011 17.3774 32.3884 16.5905 31.0113C16.2934 30.4914 15.7406 30.1704 15.1419 30.1699C15.1415 30.1699 15.141 30.1699 15.1406 30.1699C14.5423 30.1699 13.9897 30.49 13.692 31.0091L0.221269 54.4993C-0.0750868 55.0161 -0.0736395 55.6517 0.224943 56.1672C0.523525 56.6826 1.07415 57 1.66987 57H55.3282C56.5941 57 57.4015 55.641 56.7934 54.5289ZM27.7532 11.8657C26.4877 12.4984 25.3589 13.0629 23.4902 13.2727V6.60821C26.1791 6.3673 27.7943 5.55973 29.2468 4.83353C30.5122 4.20086 31.6412 3.63631 33.5097 3.42657V10.0911C30.8208 10.3319 29.2057 11.1395 27.7532 11.8657ZM35.1816 21.9644L38.4266 27.8986L35.1797 29.8828L31.9417 27.9041L35.1816 21.9644ZM15.138 35.2012L16.83 38.1622L15.1406 39.6404L13.4437 38.1557L15.138 35.2012ZM4.55249 53.6602L11.7491 41.1108L14.0409 43.1162C14.6706 43.6671 15.6105 43.667 16.2402 43.1162L18.5206 41.1208L20.215 44.0859C20.5153 44.6113 21.0748 44.9311 21.6815 44.9274C22.2866 44.9213 22.8412 44.5885 23.1309 44.0571L30.3405 30.8397L34.3089 33.2648C34.8433 33.5915 35.5159 33.5915 36.0504 33.2648L40.0307 30.8324L52.5117 53.6602H4.55249Z" fill="white"/>
</svg>
