<svg width="70" height="45" viewBox="0 0 70 45" fill="none" xmlns="http://www.w3.org/2000/svg">
<path d="M3.3014 17.2064C9.45615 12.2993 21.7205 4.0671 34.7061 4.0671C47.6917 4.0671 59.956 12.2993 66.1108 17.2064C66.9889 17.9065 68.2685 17.7623 68.9686 16.8842C69.6688 16.006 69.5244 14.7264 68.6463 14.0264C62.0761 8.78793 48.9298 0 34.7062 0C20.4826 0 7.33624 8.78793 0.765971 14.0264C-0.112252 14.7264 -0.256499 16.006 0.443721 16.8842C1.14353 17.7621 2.42304 17.9066 3.3014 17.2064ZM42.8403 24.4026H36.7396V18.302C36.7396 17.1789 35.8292 16.2684 34.7061 16.2684C33.583 16.2684 32.6725 17.1789 32.6725 18.302V26.4362C32.6725 27.5592 33.583 28.4697 34.7061 28.4697H42.8403C43.9634 28.4697 44.8738 27.5592 44.8738 26.4362C44.8738 25.3131 43.9634 24.4026 42.8403 24.4026ZM68.8104 24.9922C68.6371 24.8203 64.496 20.7369 58.2665 16.6069C49.7864 10.9847 41.8596 8.13407 34.706 8.13407C27.5523 8.13407 19.6255 10.9847 11.1454 16.6069C4.91591 20.7369 0.774783 24.8203 0.601525 24.9922C0.216505 25.374 0 25.8938 0 26.436C0 26.9783 0.216641 27.4981 0.601525 27.8799C0.774783 28.0518 4.91591 32.1351 11.1454 36.2651C19.6255 41.8874 27.5523 44.738 34.706 44.738C41.8596 44.738 49.7864 41.8874 58.2665 36.2651C64.496 32.1351 68.6371 28.0518 68.8104 27.8799C69.1954 27.4981 69.412 26.9783 69.412 26.436C69.412 25.8938 69.1954 25.3741 68.8104 24.9922ZM19.3421 36.3703C12.8924 33.0546 7.55505 28.6698 5.03223 26.435C7.55492 24.1972 12.8927 19.8076 19.3487 16.4917C17.4871 19.3567 16.4041 22.7721 16.4041 26.4362C16.4041 30.0958 17.4845 33.5075 19.3421 36.3703ZM34.7061 40.671C26.8579 40.671 20.4712 34.2861 20.4712 26.4362C20.4712 18.5879 26.8563 12.2013 34.7061 12.2013C42.5542 12.2013 48.941 18.5863 48.941 26.4362C48.941 34.2845 42.5559 40.671 34.7061 40.671ZM50.0633 36.3806C51.925 33.5155 53.0079 30.1001 53.0079 26.4362C53.0079 22.7766 51.9276 19.3648 50.07 16.5019C56.5196 19.8176 61.8568 24.2024 64.3798 26.4373C61.8573 28.675 56.5195 33.0646 50.0633 36.3806Z" fill="white"/>
</svg>
