<svg width="73" height="86" viewBox="0 0 73 86" fill="none" xmlns="http://www.w3.org/2000/svg">
<path d="M36.5 85.1666L17.7147 75.1504C12.3593 72.3013 7.88087 68.0477 4.75998 62.846C1.63909 57.6444 -0.00642723 51.6911 1.88662e-05 45.625V6.08333C0.00162936 4.47043 0.643068 2.92404 1.78356 1.78354C2.92406 0.643048 4.47044 0.00161049 6.08335 0H66.9166C68.5296 0.00161049 70.0759 0.643048 71.2164 1.78354C72.3569 2.92404 72.9984 4.47043 73 6.08333V45.625C73.0064 51.6911 71.3609 57.6444 68.24 62.846C65.1191 68.0477 60.6407 72.3013 55.2853 75.1504L36.5 85.1666ZM6.08335 6.08333V45.625C6.0783 50.5884 7.42504 55.4595 9.979 59.7153C12.533 63.9712 16.1977 67.4513 20.5799 69.7819L36.5 78.2712L52.4201 69.7849C56.8027 67.4541 60.4678 63.9736 63.0218 59.7171C65.5758 55.4606 66.9222 50.5889 66.9166 45.625V6.08333H6.08335Z" fill="white"/>
<path d="M36.5 70.8009V12.1667H60.8333V45.0319C60.8331 48.8873 59.7861 52.6703 57.8041 55.9771C55.822 59.284 52.9792 61.9906 49.5792 63.8081L36.5 70.8009Z" fill="white"/>
</svg>
