<svg width="34" height="47" viewBox="0 0 34 47" fill="none" xmlns="http://www.w3.org/2000/svg">
<path d="M17 0C7.61559 0.0105646 0.0105646 7.61559 0 17C0 26.1343 15.7345 45.2732 16.4042 46.0833C16.551 46.261 16.7695 46.3636 17 46.3636C17.2305 46.3636 17.449 46.261 17.5958 46.0833C18.2659 45.2732 34 26.1343 34 17C33.9894 7.61559 26.3844 0.0105646 17 0ZM17 44.3624C14.0925 40.7327 1.54545 24.6262 1.54545 17C1.54545 8.46453 8.46491 1.54545 17 1.54545C25.5355 1.54545 32.4545 8.46453 32.4545 17C32.4545 24.6262 19.9079 40.7327 17 44.3624Z" fill="white"/>
<path d="M17 6.29932C11.1553 6.29932 6.41699 11.094 6.41699 17.0083C6.41699 22.9227 11.1553 27.7174 17 27.7174C22.8451 27.7174 27.5831 22.9227 27.5831 17.0083C27.5767 11.0968 22.8423 6.30578 17 6.29932ZM17 26.4575C11.8429 26.4575 7.66206 22.2269 7.66206 17.0083C7.66206 11.7898 11.8429 7.5592 17 7.5592C22.1572 7.5592 26.338 11.7898 26.338 17.0083C26.3322 22.2244 22.1548 26.4516 17 26.4575Z" fill="white"/>
</svg>
