<svg width="33" height="42" viewBox="0 0 33 42" fill="none" xmlns="http://www.w3.org/2000/svg">
<path d="M27.1103 39.5679L31.4531 37.0611C32.652 36.3687 33.0627 34.8357 32.3707 33.6365L29.0277 27.846C28.3354 26.6471 26.8024 26.2364 25.6034 26.9284L24.1552 27.7639C22.9565 28.4555 21.4241 28.0449 20.7317 26.8466L14.0433 15.2649C13.3855 14.0612 13.7896 12.553 14.9611 11.8395L16.4085 11.0038C17.5798 10.2906 17.9839 8.78264 17.3261 7.5793L13.9831 1.78881C13.2907 0.589928 11.7577 0.179164 10.5587 0.871253L6.21589 3.378C3.9506 4.6888 2.23546 6.77427 1.38666 9.25006C1.34161 9.33499 1.31142 9.42695 1.29735 9.52205C1.24978 9.67372 1.20567 9.82541 1.16457 9.97881C0.417105 12.7598 0.803516 15.7238 2.23895 18.2201L12.2672 35.5906C13.8046 38.2421 16.3891 40.1219 19.3851 40.7677C19.4385 40.7841 19.4933 40.7959 19.5487 40.8029C22.1355 41.3252 24.824 40.8861 27.1103 39.5679ZM27.5788 28.6812L30.9217 34.4718C31.1524 34.8715 31.0155 35.3825 30.6159 35.6133L29.8914 36.0309L25.7129 28.793L26.4383 28.3748C26.8378 28.1446 27.3482 28.2814 27.579 28.6804L27.5788 28.6812ZM12.5357 2.62443L15.8787 8.41492C16.1094 8.81463 15.9725 9.32563 15.5729 9.55645L14.8492 9.97429L10.6706 2.73642L11.3943 2.31859C11.7939 2.08793 12.305 2.22486 12.5357 2.62443ZM13.631 35.07L3.60214 17.6985C2.30104 15.4346 2.02294 12.7246 2.83704 10.2435L2.84462 10.2153L2.85003 10.1951C3.55634 8.06184 5.0207 6.26189 6.96557 5.13631L9.13759 3.88222L13.3603 11.1942C12.4923 11.9625 11.9803 13.0552 11.9456 14.2139C11.9336 15.0285 12.1519 15.8299 12.5755 16.5259L19.1312 27.8826C19.5226 28.5976 20.108 29.1876 20.82 29.5845C21.8407 30.1321 23.0418 30.2348 24.1407 29.8687L28.3559 37.1795L26.1847 38.4338C24.2385 39.5548 21.949 39.9233 19.7494 39.4697L19.7413 39.4675C19.7292 39.4643 19.7171 39.461 19.7042 39.4576C17.1491 38.9228 14.9414 37.3279 13.631 35.07Z" fill="white"/>
</svg>
