<svg width="56" height="56" viewBox="0 0 56 56" fill="none" xmlns="http://www.w3.org/2000/svg">
<path d="M55.038 39.1026L48.7491 32.8138C55.9625 17.6773 44.8753 0 28.0001 0C11.1543 0 0.0233191 17.6469 7.25115 32.8138L0.962304 39.1026C-0.787915 40.8529 -0.0437272 43.8398 2.32949 44.5625L9.31505 46.6843L11.4368 53.6699C12.1566 56.0337 15.1374 56.7932 16.8967 55.0371L26.0774 45.8563C27.3395 45.961 28.6177 45.9645 29.9229 45.8563L39.1037 55.0371C40.8566 56.79 43.8422 56.0385 44.5635 53.6699L46.6853 46.6843L53.6709 44.5625C56.0478 43.8387 56.7852 40.8499 55.038 39.1026ZM14.577 52.7162L12.4541 45.7307C12.1358 44.6807 11.3188 43.8636 10.2689 43.5444L3.28335 41.4226L8.93793 35.768C12.0091 40.3267 16.6705 43.7292 22.1206 45.173L14.577 52.7162ZM11.3088 33.3968C3.06569 20.2698 12.6561 3.28114 28.0001 3.28114C43.4681 3.28114 52.8605 20.3876 44.6914 33.3967C36.9567 45.7321 19.0424 45.7304 11.3088 33.3968ZM45.7316 43.5443C44.6816 43.8636 43.8645 44.6807 43.5453 45.7306L41.4235 52.7161L33.8801 45.1727C39.3302 43.729 43.9915 40.3265 47.0628 35.7678L52.7173 41.4224L45.7316 43.5443Z" fill="white"/>
<path d="M28.0002 6.56152C17.0211 6.56152 9.08376 17.2186 12.3075 27.7568C15.0541 36.7568 24.7971 41.5388 33.5126 38.4205C39.8604 36.1487 44.406 30.0757 44.406 22.9673C44.406 13.9211 37.0464 6.56152 28.0002 6.56152ZM19.1521 32.6511C10.2929 24.565 16.1209 9.84266 28.0002 9.84266C36.0848 9.84266 42.239 17.1173 40.9619 25.0257C39.355 35.2765 26.878 39.721 19.1521 32.6511Z" fill="white"/>
<path d="M32.9777 18.5306L25.7463 23.8983L23.2411 21.2291C22.621 20.5682 21.5829 20.5353 20.9222 21.1555C20.2615 21.7755 20.2285 22.8138 20.8487 23.4744L24.354 27.2095C24.9245 27.8175 25.8597 27.9003 26.5281 27.4042L34.9333 21.1653C35.6609 20.6253 35.8128 19.5976 35.2728 18.8701C34.7328 18.1426 33.7053 17.9906 32.9777 18.5306Z" fill="white"/>
</svg>
