<svg width="40" height="57" viewBox="0 0 40 57" fill="none" xmlns="http://www.w3.org/2000/svg">
<path d="M16.4779 36.2513C17.3879 36.2513 18.1257 35.5135 18.1257 34.6035C18.1257 33.6949 18.8648 32.9557 19.7734 32.9557C20.682 32.9557 21.4212 33.6949 21.4212 34.6035C21.4212 35.1901 21.1051 35.7374 20.5963 36.0317C19.0724 36.9132 18.1257 38.5536 18.1257 40.3128V41.1947C18.1257 42.1047 18.8634 42.8424 19.7734 42.8424C20.6835 42.8424 21.4212 42.1047 21.4212 41.1947V40.3128C21.4212 39.7262 21.7374 39.1789 22.2464 38.8845C23.7702 38.0029 24.7168 36.3626 24.7168 34.6035C24.7168 31.8777 22.4992 29.6602 19.7734 29.6602C17.0477 29.6602 14.8301 31.8777 14.8301 34.6035C14.8301 35.5135 15.5678 36.2513 16.4779 36.2513ZM37.8991 23.069H36.2513V16.4779C36.2513 7.39197 28.8593 0 19.7734 0C10.6875 0 3.29557 7.39197 3.29557 16.4779V23.069H1.64779C0.737769 23.069 0 23.8068 0 24.7168V54.5967C0 55.5067 0.737769 56.2444 1.64779 56.2444H37.8991C38.8091 56.2444 39.5469 55.5067 39.5469 54.5967V24.7168C39.5469 23.8068 38.8091 23.069 37.8991 23.069ZM6.59115 16.4779C6.59115 9.20915 12.5047 3.29557 19.7734 3.29557C27.0422 3.29557 32.9557 9.20915 32.9557 16.4779V23.069H29.6602V16.4779C29.6602 11.0263 25.225 6.59115 19.7734 6.59115C14.3219 6.59115 9.88672 11.0263 9.88672 16.4779V23.069H6.59115V16.4779ZM26.3646 16.4779V23.069H13.1823V16.4779C13.1823 12.8435 16.1391 9.88672 19.7734 9.88672C23.4078 9.88672 26.3646 12.8435 26.3646 16.4779ZM36.2513 31.3079H34.6439C33.7339 31.3079 32.9962 32.0457 32.9962 32.9557C32.9962 33.8657 33.7339 34.6035 34.6439 34.6035H36.2513V37.8991H34.6439C33.7339 37.8991 32.9962 38.6369 32.9962 39.5469C32.9962 40.4569 33.7339 41.1947 34.6439 41.1947H36.2513V44.4902H34.6439C33.7339 44.4902 32.9962 45.228 32.9962 46.138C32.9962 47.048 33.7339 47.7858 34.6439 47.7858H36.2513V52.9489H3.29557V47.7858H4.94336C5.85338 47.7858 6.59115 47.048 6.59115 46.138C6.59115 45.228 5.85338 44.4902 4.94336 44.4902H3.29557V41.1947H4.94336C5.85338 41.1947 6.59115 40.4569 6.59115 39.5469C6.59115 38.6369 5.85338 37.8991 4.94336 37.8991H3.29557V34.6035H4.94336C5.85338 34.6035 6.59115 33.8657 6.59115 32.9557C6.59115 32.0457 5.85338 31.3079 4.94336 31.3079H3.29557V26.3646H36.2513V31.3079ZM19.7734 46.138C18.8634 46.138 18.1257 46.8758 18.1257 47.7858C18.1257 48.6958 18.8634 49.4336 19.7734 49.4336C20.6835 49.4336 21.4212 48.6958 21.4212 47.7858C21.4212 46.8758 20.6835 46.138 19.7734 46.138Z" fill="white"/>
</svg>
