<svg width="93" height="93" viewBox="0 0 93 93" fill="none" xmlns="http://www.w3.org/2000/svg">
<path d="M15.5 23.25H20.6667V28.4167H15.5V23.25Z" fill="white"/>
<path d="M15.5 43.9167H20.6667V49.0834H15.5V43.9167Z" fill="white"/>
<path d="M25.8333 43.9167H61.9999V49.0834H25.8333V43.9167Z" fill="white"/>
<path d="M15.5 64.5833H20.6667V69.7499H15.5V64.5833Z" fill="white"/>
<path d="M25.8333 64.5833H61.9999V69.7499H25.8333V64.5833Z" fill="white"/>
<path d="M25.8333 28.4167H61.9999V27.0992C61.1048 25.9071 60.3506 24.6155 59.7524 23.25H25.8333V28.4167Z" fill="white"/>
<path d="M77.4998 34.8751C75.1324 34.8729 72.7855 34.435 70.5765 33.5834H10.3332V18.0834H58.3057C58.188 17.2273 58.1276 16.3643 58.1248 15.5001C58.1276 14.6359 58.188 13.7729 58.3057 12.9167H10.3332C8.96289 12.9167 7.64872 13.4611 6.67979 14.43C5.71085 15.399 5.1665 16.7131 5.1665 18.0834V74.9167C5.1665 76.287 5.71085 77.6012 6.67979 78.5701C7.64872 79.5391 8.96289 80.0834 10.3332 80.0834H82.6665C84.0368 80.0834 85.351 79.5391 86.3199 78.5701C87.2888 77.6012 87.8332 76.287 87.8332 74.9167V31.8784C84.7431 33.838 81.1589 34.8774 77.4998 34.8751ZM10.3332 38.7501H82.6665V54.2501H10.3332V38.7501ZM10.3332 74.9167V59.4167H82.6665V74.9167H10.3332Z" fill="white"/>
<path d="M77.4999 28.4166C84.6336 28.4166 90.4166 22.6336 90.4166 15.4999C90.4166 8.36624 84.6336 2.58325 77.4999 2.58325C70.3662 2.58325 64.5833 8.36624 64.5833 15.4999C64.5833 22.6336 70.3662 28.4166 77.4999 28.4166Z" fill="white"/>
</svg>
