<svg width="72" height="83" viewBox="0 0 72 83" fill="none" xmlns="http://www.w3.org/2000/svg">
<path d="M35.5714 83L17.264 73.2386C12.0449 70.462 7.68039 66.3166 4.63889 61.2472C1.5974 56.1779 -0.00626372 50.376 1.83862e-05 44.4643V5.92857C0.00158791 4.3567 0.626708 2.84965 1.73819 1.73817C2.84967 0.626689 4.35672 0.00156952 5.92859 0H65.2143C66.7862 0.00156952 68.2932 0.626689 69.4047 1.73817C70.5162 2.84965 71.1413 4.3567 71.1429 5.92857V44.4643C71.1491 50.376 69.5455 56.1779 66.504 61.2472C63.4625 66.3166 59.098 70.462 53.8789 73.2386L35.5714 83ZM5.92859 5.92857V44.4643C5.92367 49.3014 7.23615 54.0486 9.72514 58.1962C12.2141 62.3438 15.7857 65.7353 20.0564 68.0066L35.5714 76.28L51.0865 68.0096C55.3577 65.738 58.9295 62.3461 61.4185 58.1979C63.9075 54.0497 65.2197 49.3019 65.2143 44.4643V5.92857H5.92859Z" fill="white"/>
</svg>
