<svg width="34" height="47" viewBox="0 0 34 47" fill="none" xmlns="http://www.w3.org/2000/svg">
<path d="M17 0C7.61559 0.0105646 0.0105646 7.61559 0 17C0 26.1343 15.7345 45.2732 16.4042 46.0833C16.551 46.261 16.7695 46.3636 17 46.3636C17.2305 46.3636 17.449 46.261 17.5958 46.0833C18.2659 45.2732 34 26.1343 34 17C33.9894 7.61559 26.3844 0.0105646 17 0ZM17 44.3624C14.0925 40.7327 1.54545 24.6262 1.54545 17C1.54545 8.46453 8.46491 1.54545 17 1.54545C25.5355 1.54545 32.4545 8.46453 32.4545 17C32.4545 24.6262 19.9079 40.7327 17 44.3624Z" fill="white"/>
</svg>
