<svg xmlns="http://www.w3.org/2000/svg" xmlns:xlink="http://www.w3.org/1999/xlink" width="222.257" height="58.0726" viewBox="0 0 222.257 58.0726"><defs><style>.a{fill-rule:evenodd;fill:url(#a);}.b{fill:#222342;}.c{fill:#0ab252;}.d{fill:url(#b);}</style><linearGradient id="a" x1="24.4957" y1="7.8421" x2="24.1618" y2="56.451" gradientUnits="userSpaceOnUse"><stop offset="0" stop-color="#39e74a"/><stop offset="1" stop-color="#009245"/></linearGradient><linearGradient id="b" x1="108.2703" y1="8.0332" x2="196.1508" y2="8.0332" gradientUnits="userSpaceOnUse"><stop offset="0.1114" stop-color="#39e74a"/><stop offset="1" stop-color="#009245"/></linearGradient></defs><polygon class="a" points="22.292 19.251 9.642 41.162 9.642 41.162 6.428 35.596 19.078 13.684 25.506 13.684 29.531 13.684 42.182 35.597 38.97 41.162 38.969 41.162 32.542 41.162 32.542 41.162 27.123 41.162 26.116 41.162 24.337 38.08 19.366 46.728 35.755 46.728 35.755 46.728 39.978 46.728 42.182 46.728 48.61 35.597 48.61 35.596 35.959 13.684 32.746 8.118 29.384 8.118 29.384 8.118 15.864 8.118 12.651 13.684 12.652 13.684 0 35.596 3.215 41.162 6.428 46.728 8.633 46.728 12.856 46.728 14.968 43.069 24.305 26.896 29.329 35.596 35.755 35.596 33.96 32.485 26.318 19.251 22.292 19.251"/><path class="b" d="M72.6,32.7986H63.3615l-1.7627,4.3306H56.88L65.7492,16.92h4.5483l8.898,20.209H74.363Zm-1.45-3.5507-3.1553-7.7374L64.84,29.2479Z"/><path class="b" d="M80.9562,15.7078h4.4346V37.1292H80.9562Z"/><path class="b" d="M105.2892,21.5975V34.5311c0,5.7739-3.07,8.43-8.5849,8.43a12.4591,12.4591,0,0,1-7.5054-2.1362l1.7627-3.2334a9.0445,9.0445,0,0,0,5.4009,1.7612c3.1269,0,4.4922-1.4438,4.4922-4.2441v-.6641a6.2469,6.2469,0,0,1-4.8331,1.9346,7.3335,7.3335,0,0,1-7.6469-7.5063,7.3335,7.3335,0,0,1,7.6469-7.5059,6.0969,6.0969,0,0,1,5.06,2.2227V21.5975Zm-4.3779,7.2749a4.0283,4.0283,0,1,0-4.0088,3.811A3.7393,3.7393,0,0,0,100.9113,28.8724Z"/><path class="b" d="M108.2726,29.3631c0-4.6768,3.5528-7.9966,8.4141-7.9966s8.3857,3.32,8.3857,7.9966S121.548,37.36,116.6867,37.36,108.2726,34.04,108.2726,29.3631Zm12.3086,0c0-2.6846-1.6777-4.3013-3.8945-4.3013s-3.9229,1.6167-3.9229,4.3013,1.7051,4.3017,3.9229,4.3017S120.5812,32.0481,120.5812,29.3631Z"/><path class="b" d="M126.7765,35.137l1.5635-3.522a11.5806,11.5806,0,0,0,6.5664,2.1075c2.73,0,3.8379-.9239,3.8379-2.1651,0-3.7817-11.5693-1.1836-11.5693-8.69,0-3.4356,2.7285-6.2935,8.3857-6.2935a13.1885,13.1885,0,0,1,6.9072,1.79l-1.4209,3.5507a11.1109,11.1109,0,0,0-5.5146-1.5878c-2.73,0-3.7813,1.0395-3.7813,2.31,0,3.7241,11.57,1.1548,11.57,8.5742,0,3.378-2.7578,6.2652-8.4433,6.2652A14.0262,14.0262,0,0,1,126.7765,35.137Z"/><path class="b" d="M162.8205,29.3631c0,4.8794-3.3262,7.9971-7.6182,7.9971a5.8917,5.8917,0,0,1-4.6055-1.8765V42.73h-4.4345V21.5975h4.2353v1.79a5.901,5.901,0,0,1,4.8047-2.0205C159.4943,21.3665,162.8205,24.4842,162.8205,29.3631Zm-4.4912,0c0-2.6846-1.6778-4.3013-3.8946-4.3013s-3.8945,1.6167-3.8945,4.3013,1.6768,4.3017,3.8945,4.3017S158.3293,32.0481,158.3293,29.3631Z"/><path class="b" d="M164.6379,29.3631c0-4.6768,3.5537-7.9966,8.415-7.9966s8.3857,3.32,8.3857,7.9966-3.5244,7.9971-8.3857,7.9971S164.6379,34.04,164.6379,29.3631Zm12.3095,0c0-2.6846-1.6777-4.3013-3.8945-4.3013s-3.9229,1.6167-3.9229,4.3013,1.7051,4.3017,3.9229,4.3017S176.9474,32.0481,176.9474,29.3631Z"/><path class="b" d="M193.8879,21.3665v4.1572c-.3692-.0288-.6534-.0576-.9942-.0576-2.4453,0-4.0654,1.3565-4.0654,4.33v7.333h-4.4346V21.5975h4.2354v2.05A6.13,6.13,0,0,1,193.8879,21.3665Z"/><path class="b" d="M206.9357,36.3787a6.2656,6.2656,0,0,1-3.61.9815c-3.61,0-5.7139-1.8765-5.7139-5.5718v-6.38h-2.3594V21.9437h2.3594V18.1619h4.4346v3.7818h3.81V25.408h-3.81v6.3228a1.7993,1.7993,0,0,0,1.9043,2.05,2.9562,2.9562,0,0,0,1.791-.5777Z"/><path class="b" d="M207.9582,35.6858l1.4785-3.2334a10.34,10.34,0,0,0,5.3154,1.501c2.0469,0,2.8145-.5483,2.8145-1.4145,0-2.5406-9.2383.0576-9.2383-6.149,0-2.9448,2.6152-5.0234,7.0781-5.0234a12.4126,12.4126,0,0,1,5.8838,1.3569l-1.4775,3.2046a8.678,8.678,0,0,0-4.4063-1.1552c-1.99,0-2.8428.6352-2.8428,1.4438,0,2.6558,9.2383.0864,9.2383,6.207,0,2.8868-2.6435,4.9366-7.22,4.9366A12.9751,12.9751,0,0,1,207.9582,35.6858Z"/><path class="c" d="M184.7873,49.7474h1.07v4.0859a5.7683,5.7683,0,0,1-3.875,1.3623,5.45,5.45,0,1,1,.0156-10.8965,5.158,5.158,0,0,1,3.92,1.5459l-.6943.7188a4.2666,4.2666,0,0,0-3.1807-1.2549,4.4391,4.4391,0,1,0-.0146,8.8769,4.5166,4.5166,0,0,0,2.7588-.8271Z"/><path class="c" d="M192.7746,46.9925v1.0556c-.0908,0-.1807-.0146-.2559-.0146-1.6592,0-2.6689,1.0713-2.6689,2.9687v4.1016h-1.07v-8.05h1.0253V48.63A2.9822,2.9822,0,0,1,192.7746,46.9925Z"/><path class="c" d="M193.8283,51.0784a4.0333,4.0333,0,1,1,4.041,4.1016A3.93,3.93,0,0,1,193.8283,51.0784Zm6.98,0a2.9531,2.9531,0,1,0-2.9395,3.1377A2.9154,2.9154,0,0,0,200.8088,51.0784Z"/><path class="c" d="M211.2238,47.054v8.05h-1.0254V53.6351a3.1445,3.1445,0,0,1-2.85,1.5449,3.0952,3.0952,0,0,1-3.3467-3.458V47.054h1.07v4.5606c0,1.7138.875,2.5859,2.3828,2.5859a2.6,2.6,0,0,0,2.6983-2.9229V47.054Z"/><path class="c" d="M222.257,51.0784a3.87,3.87,0,0,1-3.95,4.1016,3.447,3.447,0,0,1-3.0146-1.5918v4.4844h-1.07V47.054h1.0245v1.5908a3.4411,3.4411,0,0,1,3.0605-1.6523A3.8661,3.8661,0,0,1,222.257,51.0784Zm-1.07,0a2.96,2.96,0,1,0-2.9551,3.1377A2.9442,2.9442,0,0,0,221.1867,51.0784Z"/><path class="d" d="M149.6717,16.0664s54.6077-7.5813,45.4421-13.2055c0,0-14.372-8.3927-86.8435,3.5716,0,0,68.7066-10.0353,76.1326-2.41C184.4029,4.0229,189.9821,10.1123,149.6717,16.0664Z"/></svg>