<svg width="190" height="50" viewBox="0 0 190 50" fill="none" xmlns="http://www.w3.org/2000/svg">
<g clip-path="url(#clip0_15:2)">
<path fill-rule="evenodd" clip-rule="evenodd" d="M19.0547 16.5747L8.2408 35.4399L5.49672 30.6526L16.3106 11.7788H21.8073H25.2439L36.0578 30.6526L33.3137 35.4399H27.817H23.1837H22.3288L20.8072 32.7879L16.5585 40.2358H30.5696H34.1771H36.0578L41.5545 30.6526L30.7406 11.7788L27.9965 6.99146H25.1156H13.558L10.8139 11.7788L0 30.6526L2.74408 35.4399L5.49672 40.2358H7.3774H10.9934L12.7972 37.0844L20.773 23.1616L25.0729 30.6526H30.5696L29.0309 27.9661L22.4998 16.5747H19.0547Z" fill="url(#paint0_linear_15:2)"/>
<path fill-rule="evenodd" clip-rule="evenodd" d="M25.244 11.7961H16.3107L5.49683 30.6699L8.24091 35.4572L19.0548 16.5921H22.4999L29.0224 27.9835L30.5697 30.6699H25.073L20.7731 23.179L12.7973 37.0932L10.9935 40.2532H16.5586L20.8073 32.8053L22.3204 35.4572H33.3052L36.0579 30.6699L25.244 11.7961Z" fill="white"/>
<path d="M62.0626 28.2417H54.1637L52.6592 31.97H48.6243L56.2068 14.5686H60.0964L67.7046 31.97H63.5671L62.0626 28.2417ZM60.823 25.1851L58.1303 18.5207L55.4289 25.1851H60.823Z" fill="#222342"/>
<path d="M69.2432 13.5269H73.0302V31.9701H69.2432V13.5269Z" fill="#222342"/>
<path d="M90.0077 18.5983V29.7314C90.0077 34.6995 87.3833 36.9899 82.6645 36.9899C80.3863 37.0856 78.1381 36.4395 76.2531 35.1473L77.7918 32.3662C79.1279 33.3599 80.7473 33.8915 82.4081 33.8816C85.0838 33.8816 86.2464 32.6417 86.2464 30.2308V29.6539C85.7127 30.2226 85.062 30.6668 84.3399 30.9553C83.6177 31.2439 82.8417 31.3698 82.0661 31.3243C81.2077 31.3611 80.351 31.2199 79.5489 30.9096C78.7469 30.5992 78.0167 30.1263 77.4036 29.52C76.7905 28.9138 76.3075 28.1872 75.9846 27.3852C75.6617 26.5833 75.5058 25.7231 75.5265 24.858C75.507 23.9936 75.6638 23.1343 75.9872 22.3334C76.3107 21.5325 76.7938 20.8069 77.4068 20.2016C78.0198 19.5963 78.7496 19.1241 79.551 18.8143C80.3524 18.5044 81.2085 18.3635 82.0661 18.4002C82.8857 18.3528 83.7048 18.5012 84.4565 18.8334C85.2083 19.1656 85.8714 19.6722 86.3917 20.3117V18.5897L90.0077 18.5983ZM86.2635 24.858C86.2959 24.1708 86.1233 23.4895 85.7678 22.902C85.4123 22.3145 84.8903 21.8477 84.2691 21.5618C83.6478 21.2759 82.9557 21.1839 82.2821 21.2977C81.6085 21.4116 80.9841 21.726 80.4895 22.2005C79.9949 22.675 79.6528 23.2878 79.5071 23.96C79.3615 24.6322 79.419 25.3329 79.6724 25.9718C79.9257 26.6107 80.3632 27.1586 80.9285 27.5447C81.4938 27.9309 82.161 28.1377 82.844 28.1385C83.2873 28.1697 83.7321 28.1075 84.1502 27.9559C84.5683 27.8043 84.9503 27.5665 85.2721 27.2578C85.5938 26.9492 85.8482 26.5763 86.0188 26.1631C86.1895 25.7499 86.2729 25.3054 86.2635 24.858V24.858Z" fill="#222342"/>
<path d="M92.5552 25.2798C92.5552 21.2588 95.5985 18.3916 99.7531 18.3916C103.908 18.3916 106.917 21.2502 106.917 25.2798C106.917 29.3095 103.908 32.1681 99.7531 32.1681C95.5985 32.1681 92.5552 29.275 92.5552 25.2798ZM103.078 25.2798C103.078 22.9723 101.642 21.5774 99.7531 21.5774C97.8638 21.5774 96.3935 22.9723 96.3935 25.2798C96.3935 27.5874 97.8553 28.9823 99.7531 28.9823C101.651 28.9823 103.078 27.596 103.078 25.2798Z" fill="#222342"/>
<path d="M108.378 30.2566L109.712 27.2258C111.359 28.3882 113.318 29.0188 115.328 29.034C117.662 29.034 118.611 28.2418 118.611 27.1741C118.611 23.9194 108.72 26.1495 108.72 19.6918C108.72 16.7298 111.046 14.2673 115.884 14.2673C117.956 14.2267 119.999 14.7598 121.791 15.8085L120.577 18.8652C119.149 18.0057 117.522 17.5368 115.858 17.5048C113.525 17.5048 112.627 18.3658 112.627 19.4937C112.627 22.6968 122.518 20.4839 122.518 26.8728C122.518 29.7831 120.158 32.2714 115.303 32.2714C112.844 32.3324 110.426 31.6289 108.378 30.2566V30.2566Z" fill="#222342"/>
<path d="M139.187 25.2797C139.187 29.4816 136.349 32.168 132.673 32.168C131.94 32.2037 131.208 32.0772 130.529 31.7976C129.85 31.5179 129.24 31.0918 128.741 30.5492V36.7917H124.946V18.5982H128.57V20.1394C129.078 19.5552 129.711 19.0961 130.423 18.7976C131.134 18.499 131.904 18.3689 132.673 18.4173C136.349 18.4001 139.187 21.0779 139.187 25.2797ZM135.349 25.2797C135.349 22.9722 133.913 21.5773 132.024 21.5773C130.135 21.5773 128.69 22.9722 128.69 25.2797C128.69 27.5873 130.126 28.9822 132.024 28.9822C133.922 28.9822 135.349 27.5959 135.349 25.2797V25.2797Z" fill="#222342"/>
<path d="M140.743 25.2798C140.743 21.2588 143.778 18.3916 147.932 18.3916C152.087 18.3916 155.105 21.2502 155.105 25.2798C155.105 29.3095 152.087 32.1681 147.932 32.1681C143.778 32.1681 140.743 29.275 140.743 25.2798ZM151.266 25.2798C151.266 22.9723 149.83 21.5774 147.932 21.5774C146.035 21.5774 144.581 22.9723 144.581 25.2798C144.581 27.5874 146.043 28.9823 147.932 28.9823C149.822 28.9823 151.309 27.596 151.309 25.2798H151.266Z" fill="#222342"/>
<path d="M165.748 18.4001V21.9734C165.432 21.9734 165.192 21.9303 164.893 21.9303C162.807 21.9303 161.422 23.0927 161.422 25.6586V31.9699H157.627V18.5981H161.251V20.3202C161.79 19.6565 162.48 19.1348 163.264 18.8003C164.047 18.4657 164.9 18.3284 165.748 18.4001Z" fill="#222342"/>
<path d="M176.904 31.3242C175.985 31.9197 174.909 32.22 173.818 32.1852C170.732 32.1852 168.928 30.5665 168.928 27.3893V21.8787H166.91V18.8909H168.928V15.6362H172.723V18.8909H175.98V21.8787H172.723V27.3204C172.691 27.5487 172.71 27.7813 172.778 28.0014C172.846 28.2215 172.963 28.4234 173.118 28.5925C173.274 28.7616 173.465 28.8936 173.678 28.9789C173.89 29.0642 174.119 29.1006 174.348 29.0855C174.898 29.093 175.436 28.9175 175.878 28.5861L176.904 31.3242Z" fill="#222342"/>
<path d="M177.81 30.7301L179.075 27.9403C180.443 28.7795 182.013 29.2261 183.614 29.2319C185.367 29.2319 186.025 28.7669 186.025 28.0178C186.025 25.8308 178.126 28.0695 178.126 22.7225C178.126 20.1911 180.357 18.4174 184.178 18.4174C185.923 18.3849 187.649 18.7841 189.205 19.5797L187.94 22.3437C186.798 21.6774 185.498 21.3324 184.178 21.3449C182.469 21.3449 181.742 21.8959 181.742 22.5933C181.742 24.8751 189.641 22.6622 189.641 27.9317C189.641 30.4201 187.384 32.1852 183.469 32.1852C181.488 32.2171 179.534 31.7147 177.81 30.7301V30.7301Z" fill="#222342"/>
<path d="M157.969 42.8363H158.883V46.3493C157.964 47.1371 156.79 47.557 155.584 47.5289C154.348 47.5289 153.163 47.0345 152.289 46.1545C151.415 45.2744 150.925 44.0808 150.925 42.8363C150.925 41.5917 151.415 40.3981 152.289 39.5181C153.163 38.6381 154.348 38.1437 155.584 38.1437C156.204 38.1155 156.823 38.2198 157.401 38.4498C157.978 38.6798 158.501 39.0303 158.935 39.4783L158.336 40.0896C157.977 39.727 157.547 39.4439 157.073 39.2586C156.599 39.0733 156.091 38.9897 155.584 39.0133C154.577 39.0133 153.611 39.4161 152.9 40.133C152.188 40.85 151.788 41.8224 151.788 42.8363C151.788 43.8502 152.188 44.8226 152.9 45.5395C153.611 46.2565 154.577 46.6593 155.584 46.6593C156.426 46.6867 157.255 46.4358 157.943 45.9446L157.969 42.8363Z" fill="#0AB252"/>
<path d="M164.79 40.4684V41.3811H164.577C163.157 41.3811 162.294 42.3024 162.294 43.9642V47.4944H161.379V40.5115H162.234V41.8719C162.469 41.4046 162.839 41.0201 163.295 40.7695C163.752 40.5188 164.273 40.4138 164.79 40.4684V40.4684Z" fill="#0AB252"/>
<path d="M165.697 43.9813C165.713 43.3041 165.928 42.6468 166.314 42.0919C166.7 41.5369 167.239 41.1089 167.866 40.8614C168.492 40.6139 169.176 40.5578 169.834 40.7003C170.491 40.8428 171.093 41.1774 171.562 41.6623C172.032 42.1472 172.349 42.7609 172.475 43.4265C172.6 44.0922 172.527 44.7802 172.266 45.4045C172.005 46.0289 171.567 46.5618 171.006 46.9365C170.446 47.3113 169.789 47.5113 169.116 47.5115C168.657 47.5202 168.202 47.4341 167.777 47.2587C167.353 47.0832 166.969 46.8221 166.648 46.4913C166.328 46.1605 166.078 45.7672 165.914 45.3355C165.751 44.9038 165.677 44.443 165.697 43.9813V43.9813ZM171.681 43.9813C171.657 43.4741 171.485 42.9851 171.187 42.5755C170.889 42.1659 170.478 41.8538 170.005 41.6783C169.532 41.5029 169.018 41.4717 168.527 41.5889C168.037 41.706 167.591 41.9661 167.247 42.3368C166.902 42.7075 166.674 43.1723 166.59 43.673C166.506 44.1738 166.571 44.6883 166.776 45.1523C166.981 45.6162 167.317 46.0091 167.742 46.2817C168.167 46.5543 168.663 46.6945 169.167 46.6849C169.511 46.6859 169.852 46.6152 170.168 46.4772C170.484 46.3391 170.768 46.1368 171.002 45.8829C171.237 45.629 171.416 45.329 171.53 45.0017C171.644 44.6745 171.689 44.3271 171.663 43.9813H171.681Z" fill="#0AB252"/>
<path d="M180.562 40.5115V47.4428H179.708V46.1857C179.458 46.6076 179.1 46.9536 178.671 47.187C178.242 47.4205 177.758 47.5327 177.271 47.5117C176.877 47.5493 176.479 47.4975 176.107 47.3599C175.736 47.2223 175.399 47.0026 175.123 46.7168C174.846 46.4309 174.637 46.0864 174.51 45.7084C174.384 45.3304 174.343 44.9285 174.39 44.5325V40.5115H175.305V44.4378C175.305 45.9187 176.057 46.6678 177.348 46.6678C177.671 46.6816 177.993 46.6243 178.291 46.5C178.59 46.3757 178.858 46.1873 179.077 45.948C179.296 45.7086 179.46 45.4241 179.559 45.1142C179.658 44.8043 179.688 44.4765 179.648 44.1536V40.5115H180.562Z" fill="#0AB252"/>
<path d="M190 43.9814C190.027 44.4413 189.96 44.9018 189.801 45.3339C189.643 45.7661 189.397 46.1605 189.08 46.4922C188.763 46.824 188.381 47.0858 187.958 47.2613C187.535 47.4368 187.081 47.522 186.623 47.5117C186.115 47.5247 185.612 47.4056 185.163 47.1658C184.714 46.926 184.333 46.5736 184.059 46.1426V50H183.144V40.5287H183.999V41.8978C184.269 41.4448 184.655 41.0732 185.117 40.8218C185.579 40.5704 186.099 40.4483 186.623 40.4684C187.079 40.4583 187.532 40.5431 187.953 40.7175C188.375 40.8919 188.756 41.1522 189.073 41.4821C189.391 41.8119 189.636 42.2042 189.796 42.6343C189.955 43.0644 190.025 43.523 190 43.9814ZM189.085 43.9814C189.062 43.4764 188.892 42.9893 188.596 42.5807C188.3 42.172 187.892 41.8598 187.422 41.6826C186.952 41.5055 186.44 41.4712 185.951 41.5841C185.462 41.697 185.016 41.952 184.669 42.3176C184.322 42.6832 184.09 43.1432 184 43.6408C183.911 44.1383 183.968 44.6513 184.165 45.1163C184.362 45.5814 184.69 45.9779 185.109 46.2567C185.528 46.5356 186.019 46.6845 186.521 46.6851C186.868 46.6855 187.211 46.6149 187.531 46.4776C187.85 46.3403 188.138 46.1392 188.378 45.8864C188.618 45.6336 188.804 45.3345 188.926 45.007C189.047 44.6796 189.101 44.3307 189.085 43.9814V43.9814Z" fill="#0AB252"/>
<path d="M127.946 13.8368C127.946 13.8368 174.63 7.31018 166.791 2.46258C166.791 2.46258 154.506 -4.76146 92.5552 5.53646C92.5552 5.53646 151.292 -3.07384 157.635 3.46138C157.635 3.44416 162.422 8.70505 127.946 13.8368Z" fill="url(#paint1_linear_15:2)"/>
</g>
<defs>
<linearGradient id="paint0_linear_15:2" x1="20.9439" y1="6.75037" x2="20.6491" y2="48.605" gradientUnits="userSpaceOnUse">
<stop stop-color="#39E74A"/>
<stop offset="1" stop-color="#009245"/>
</linearGradient>
<linearGradient id="paint1_linear_15:2" x1="92.5552" y1="6.91411" x2="167.68" y2="6.91411" gradientUnits="userSpaceOnUse">
<stop offset="0.11" stop-color="#39E74A"/>
<stop offset="1" stop-color="#009245"/>
</linearGradient>
<clipPath id="clip0_15:2">
<rect width="190" height="50" fill="white"/>
</clipPath>
</defs>
</svg>
