<svg xmlns="http://www.w3.org/2000/svg" xmlns:xlink="http://www.w3.org/1999/xlink" viewBox="0 0 222.26 58.07"><defs><style>.a,.b{fill-rule:evenodd;}.a{fill:url(#a);}.b{fill:#fff;}.c{fill:#222342;}.d{fill:#0ab252;}.e{fill:url(#b);}</style><linearGradient id="a" x1="24.5" y1="7.84" x2="24.16" y2="56.45" gradientUnits="userSpaceOnUse"><stop offset="0" stop-color="#39e74a"/><stop offset="1" stop-color="#009245"/></linearGradient><linearGradient id="b" x1="108.27" y1="8.03" x2="196.15" y2="8.03" gradientUnits="userSpaceOnUse"><stop offset="0.11" stop-color="#39e74a"/><stop offset="1" stop-color="#009245"/></linearGradient></defs><polygon class="a" points="22.29 19.25 9.64 41.16 9.64 41.16 6.43 35.6 19.08 13.68 25.51 13.68 29.53 13.68 42.18 35.6 38.97 41.16 38.97 41.16 32.54 41.16 32.54 41.16 27.12 41.16 26.12 41.16 24.34 38.08 19.37 46.73 35.76 46.73 35.76 46.73 39.98 46.73 42.18 46.73 48.61 35.6 48.61 35.6 35.96 13.68 32.75 8.12 29.38 8.12 29.38 8.12 15.86 8.12 12.65 13.68 12.65 13.68 0 35.6 3.21 41.16 6.43 46.73 8.63 46.73 12.86 46.73 14.97 43.07 24.3 26.9 29.33 35.6 35.76 35.6 33.96 32.48 26.32 19.25 22.29 19.25"/><polygon class="b" points="29.53 13.7 19.08 13.7 6.43 35.62 9.64 41.18 22.29 19.27 26.32 19.27 33.95 32.5 35.76 35.62 29.33 35.62 24.3 26.92 14.97 43.08 12.86 46.75 19.37 46.75 24.34 38.1 26.11 41.18 38.96 41.18 42.18 35.62 29.53 13.7"/><path class="c" d="M72.6,32.8H63.36L61.6,37.13H56.88l8.87-20.21H70.3l8.9,20.21H74.36Zm-1.45-3.55L68,21.51l-3.16,7.74Z"/><path class="c" d="M81,15.71h4.43V37.13H81Z"/><path class="c" d="M105.29,21.6V34.53c0,5.77-3.07,8.43-8.59,8.43a12.41,12.41,0,0,1-7.5-2.14L91,37.59a9,9,0,0,0,5.4,1.76c3.13,0,4.49-1.44,4.49-4.24v-.67A6.23,6.23,0,0,1,96,36.38a7.34,7.34,0,0,1-7.65-7.51A7.34,7.34,0,0,1,96,21.37a6.09,6.09,0,0,1,5.06,2.22v-2Zm-4.38,7.27a4,4,0,1,0-4,3.81A3.74,3.74,0,0,0,100.91,28.87Z"/><path class="c" d="M108.27,29.36c0-4.67,3.56-8,8.42-8s8.38,3.32,8.38,8-3.52,8-8.38,8S108.27,34,108.27,29.36Zm12.31,0c0-2.68-1.68-4.3-3.89-4.3s-3.93,1.62-3.93,4.3,1.71,4.3,3.93,4.3S120.58,32.05,120.58,29.36Z"/><path class="c" d="M126.78,35.14l1.56-3.52a11.6,11.6,0,0,0,6.57,2.1c2.73,0,3.84-.92,3.84-2.16,0-3.78-11.57-1.19-11.57-8.69,0-3.44,2.72-6.3,8.38-6.3a13.24,13.24,0,0,1,6.91,1.79l-1.42,3.55a11.18,11.18,0,0,0-5.52-1.58c-2.73,0-3.78,1-3.78,2.31,0,3.72,11.57,1.15,11.57,8.57,0,3.38-2.76,6.27-8.44,6.27A14,14,0,0,1,126.78,35.14Z"/><path class="c" d="M162.82,29.36c0,4.88-3.32,8-7.62,8a5.88,5.88,0,0,1-4.6-1.88v7.25h-4.44V21.6h4.24v1.79a5.89,5.89,0,0,1,4.8-2C159.5,21.37,162.82,24.48,162.82,29.36Zm-4.49,0c0-2.68-1.68-4.3-3.89-4.3s-3.9,1.62-3.9,4.3,1.68,4.3,3.9,4.3S158.33,32.05,158.33,29.36Z"/><path class="c" d="M164.64,29.36c0-4.67,3.55-8,8.41-8s8.39,3.32,8.39,8-3.53,8-8.39,8S164.64,34,164.64,29.36Zm12.31,0c0-2.68-1.68-4.3-3.9-4.3s-3.92,1.62-3.92,4.3,1.71,4.3,3.92,4.3S177,32.05,177,29.36Z"/><path class="c" d="M193.89,21.37v4.15c-.37,0-.65-.05-1-.05-2.44,0-4.06,1.35-4.06,4.33v7.33h-4.44V21.6h4.24v2A6.13,6.13,0,0,1,193.89,21.37Z"/><path class="c" d="M206.94,36.38a6.3,6.3,0,0,1-3.61,1c-3.61,0-5.72-1.88-5.72-5.57V25.41h-2.36V21.94h2.36V18.16h4.44v3.78h3.81v3.47h-3.81v6.32a1.8,1.8,0,0,0,1.9,2.05,2.93,2.93,0,0,0,1.79-.58Z"/><path class="c" d="M208,35.69l1.48-3.24a10.28,10.28,0,0,0,5.31,1.5c2.05,0,2.82-.54,2.82-1.41,0-2.54-9.24.06-9.24-6.15,0-2.94,2.61-5,7.08-5a12.48,12.48,0,0,1,5.88,1.35l-1.48,3.21a8.62,8.62,0,0,0-4.4-1.16c-2,0-2.85.64-2.85,1.45,0,2.65,9.24.08,9.24,6.2,0,2.89-2.64,4.94-7.22,4.94A13,13,0,0,1,208,35.69Z"/><path class="d" d="M184.79,49.75h1.07v4.08A5.75,5.75,0,0,1,182,55.2a5.45,5.45,0,1,1,0-10.9,5.15,5.15,0,0,1,3.92,1.55l-.7.71A4.27,4.27,0,0,0,182,45.31a4.44,4.44,0,1,0,0,8.88,4.52,4.52,0,0,0,2.76-.83Z"/><path class="d" d="M192.77,47v1.06l-.25,0c-1.66,0-2.67,1.07-2.67,3v4.1h-1.07V47.05h1v1.58A3,3,0,0,1,192.77,47Z"/><path class="d" d="M193.83,51.08a4,4,0,1,1,4,4.1A3.93,3.93,0,0,1,193.83,51.08Zm7,0a3,3,0,1,0-2.94,3.14A2.92,2.92,0,0,0,200.81,51.08Z"/><path class="d" d="M211.22,47.05V55.1h-1V53.64a3.16,3.16,0,0,1-2.85,1.54A3.1,3.1,0,0,1,204,51.72V47.05h1.07v4.56c0,1.72.88,2.59,2.39,2.59a2.6,2.6,0,0,0,2.69-2.92V47.05Z"/><path class="d" d="M222.26,51.08a3.87,3.87,0,0,1-3.95,4.1,3.46,3.46,0,0,1-3-1.59v4.48h-1.07v-11h1v1.59A3.43,3.43,0,0,1,218.31,47,3.87,3.87,0,0,1,222.26,51.08Zm-1.07,0a3,3,0,1,0-3,3.14A3,3,0,0,0,221.19,51.08Z"/><path class="e" d="M149.67,16.07s54.61-7.58,45.44-13.21c0,0-14.37-8.39-86.84,3.57,0,0,68.71-10,76.13-2.41C184.4,4,190,10.11,149.67,16.07Z"/></svg>